<?xml version="1.0" encoding="utf-8"?>
<!-- Generator: Adobe Illustrator 16.0.3, SVG Export Plug-In . SVG Version: 6.00 Build 0)  -->
<!DOCTYPE svg PUBLIC "-//W3C//DTD SVG 1.1//EN" "http://www.w3.org/Graphics/SVG/1.1/DTD/svg11.dtd">
<svg version="1.1" id="Capa_1" xmlns="http://www.w3.org/2000/svg" xmlns:xlink="http://www.w3.org/1999/xlink" x="0px" y="0px"
	 width="252.797px" height="113.15px" viewBox="0 0 252.797 113.15" enable-background="new 0 0 252.797 113.15"
	 xml:space="preserve">
<g>
	<path fill="#FFFFFF" d="M11.61,37.482c0.386,0.004,0.421,0.352,0.542,0.588c1.62,3.192,3.253,6.379,4.837,9.59
		c3.868,7.844,7.732,15.691,11.555,23.555c1.386,2.854,2.648,5.765,3.968,8.647c0.209,0.458,0.417,0.918,0.643,1.369
		c0.103,0.205,0.249,0.39,0.443,0.686c0.236-0.38,0.444-0.641,0.575-0.937c0.612-1.384,1.224-2.77,1.797-4.169
		c3.955-9.647,7.899-19.299,11.847-28.949c0.117-0.286,0.239-0.569,0.385-0.913c2.169,0.078,4.325,0.156,6.449,0.233
		c0.049,0.042,0.068,0.055,0.083,0.071c0.016,0.019,0.036,0.038,0.04,0.061c0.018,0.142,0.045,0.285,0.044,0.427
		c-0.08,20.099-0.163,40.199-0.249,60.299c0,0.032-0.048,0.065-0.082,0.109c-0.429-0.631-0.803-1.302-1.291-1.877
		c-1.12-1.319-2.291-2.594-3.451-3.878c-0.322-0.354-0.66-0.705-1.031-1.006c-0.453-0.369-0.579-0.813-0.588-1.382
		c-0.102-6.297-0.229-12.594-0.346-18.892c-0.088-4.735-0.17-9.469-0.262-14.205c-0.004-0.251-0.067-0.5-0.101-0.736
		c-0.473-0.092-0.565,0.22-0.68,0.469c-0.312,0.676-0.623,1.354-0.906,2.042c-2.236,5.443-4.477,10.887-6.693,16.34
		c-0.94,2.313-1.836,4.646-2.718,6.982c-0.226,0.6-0.583,0.86-1.211,0.925c-1.278,0.132-2.545,0.075-3.812-0.08
		c-0.562-0.068-0.922-0.341-1.165-0.908c-3.601-8.415-7.226-16.82-10.853-25.226c-0.143-0.33-0.208-0.733-0.707-1.021
		c-0.099,8.916,0.02,17.721,0.014,26.511c-0.611,0.161-4.886,0.213-7.077,0.099C11.61,74.032,11.61,55.756,11.61,37.482z"/>
	<path fill="#FFFFFF" d="M237.98,84.949c-0.041,0.108-0.11,0.215-0.119,0.325c-0.332,4.396-3.698,7.364-7.133,8.324
		c-2.147,0.603-4.321,0.584-6.502,0.24c-1.86-0.294-3.639-0.877-5.354-1.656c-0.174-0.08-0.346-0.164-0.516-0.252
		c-0.039-0.021-0.064-0.068-0.099-0.104c0.521-2.997,1.043-5.993,1.574-9.038c0.342-0.057,0.687-0.115,1.076-0.183
		c0.358,1.33,0.705,2.599,1.047,3.869c0.295,1.09,0.594,2.178,0.871,3.271c0.09,0.359,0.254,0.584,0.621,0.707
		c1.938,0.646,3.907,0.812,5.887,0.272c2.291-0.624,3.574-2.337,3.599-4.713c0.006-0.524-0.05-1.057-0.125-1.574
		c-0.187-1.25-0.787-2.283-1.818-2.998c-0.764-0.531-1.59-0.988-2.432-1.387c-1.105-0.524-2.273-0.921-3.377-1.445
		c-0.994-0.476-1.979-0.992-2.898-1.595c-1.844-1.204-2.904-2.961-3.355-5.101c-0.396-1.888-0.406-3.782,0.074-5.646
		c0.926-3.595,3.297-5.762,6.836-6.704c1.744-0.464,3.525-0.426,5.301-0.272c1.779,0.153,3.512,0.543,5.174,1.21
		c0.197,0.079,0.388,0.179,0.595,0.272c-0.486,2.864-0.968,5.699-1.455,8.583c-0.308,0.075-0.629,0.152-1.007,0.245
		c-0.075-0.188-0.161-0.352-0.209-0.524c-0.52-1.899-1.047-3.797-1.53-5.703c-0.11-0.438-0.326-0.646-0.742-0.749
		c-1.604-0.399-3.223-0.501-4.854-0.194c-0.236,0.044-0.471,0.103-0.699,0.176c-2.514,0.796-3.771,2.841-3.389,5.455
		c0.215,1.468,0.891,2.64,2.166,3.403c0.844,0.507,1.721,0.959,2.608,1.374c1.177,0.55,2.388,1.021,3.565,1.557
		c1.363,0.617,2.64,1.382,3.783,2.354c1.324,1.123,2.23,2.503,2.613,4.209c0.082,0.366,0.148,0.736,0.223,1.105
		C237.98,83.025,237.98,83.988,237.98,84.949z"/>
	<path fill="#FFFFFF" d="M224.454,30.497c-0.022,0.114-0.035,0.14-0.031,0.161c0.185,1.073,0.146,1.167-0.868,1.635
		c-0.873,0.401-1.763,0.77-2.642,1.155c-0.261,0.115-0.515,0.246-0.771,0.37c0.225,0.427,0.45,0.805,0.618,1.206
		c0.05,0.115-0.016,0.361-0.112,0.438c-0.33,0.266-0.674,0.549-1.063,0.695c-0.306,0.115-0.478,0.264-0.608,0.54
		c-0.132,0.276-0.332,0.521-0.461,0.798c-0.24,0.519-0.521,1.033-0.658,1.582c-0.332,1.324-0.896,2.527-1.699,3.62
		c-1.068,1.449-2.273,2.739-4.02,3.384c-0.087,0.031-0.158,0.102-0.265,0.172c0.789,1.431,1.826,2.646,2.969,3.882
		c0.361-0.223,0.726-0.442,1.082-0.668c0.279-0.178,0.568-0.295,0.863-0.058c0.274,0.222,0.34,0.542,0.217,0.852
		c-0.162,0.409-0.387,0.795-0.668,1.355c0.313-0.292,0.511-0.479,0.711-0.661c0.427-0.384,0.771-0.449,1.09-0.21
		c0.38,0.282,0.457,0.651,0.21,1.149c-0.146,0.296-0.332,0.573-0.537,0.917c0.332-0.075,0.616-0.156,0.907-0.2
		c0.593-0.09,0.826,0.021,1.013,0.443c0.184,0.414,0.106,0.689-0.299,1.072c-0.054,0.05-0.109,0.095-0.193,0.167
		c0.012,0.072,0.021,0.162,0.039,0.25c0.094,0.478,0.012,0.727-0.313,0.937c-0.399,0.258-0.879,0.261-1.213,0.016
		c-0.271-0.196-0.554-0.374-0.815-0.579c-0.146-0.115-0.359-0.26-0.377-0.411c-0.084-0.725-0.66-1.107-1.082-1.566
		c-1.525-1.664-3.101-3.285-4.664-4.913c-0.281-0.293-0.604-0.547-0.961-0.865c-1.283,0.806-2.67,1.357-4.302,1.468
		c0.142,0.178,0.203,0.302,0.306,0.379c0.655,0.503,1.096,1.199,1.647,1.79c0.717,0.769,1.31,1.715,2.424,2.051
		c0.525,0.159,0.765,0.605,0.646,0.965c-0.157,0.489-0.659,0.727-1.237,0.494c-0.396-0.162-0.625-0.054-0.865,0.24
		c-0.315,0.394-0.645,0.777-0.989,1.146c-0.521,0.55-1.058,0.646-1.443,0.287c-0.438-0.406-0.414-1.022,0.059-1.602
		c0.045-0.053,0.074-0.115,0.094-0.146c-0.477-0.452-0.953-0.873-1.391-1.33c-0.27-0.281-0.236-1.134,0.02-1.429
		c0.207-0.236,0.455-0.354,0.769-0.187c0.121,0.064,0.246,0.119,0.424,0.205c-0.332-0.609-1.493-1.726-2.151-2.096
		c-1.25-0.705-1.25-0.707-2.703-0.434c-0.9,0.168-1.783,0.039-2.631-0.231c-1.232-0.396-2.445-0.859-3.66-1.313
		c-1.394-0.521-2.592-1.335-3.646-2.392c-1.582-1.586-3.112-3.209-4.26-5.152c-0.844-1.426-1.674-2.857-2.508-4.29
		c-0.048-0.083-0.099-0.17-0.117-0.262c-0.287-1.341-1.131-2.363-1.983-3.361c-0.474-0.555-1.162-0.812-1.886-0.967
		c-0.979-0.212-1.989-0.333-2.894-0.827c-0.403-0.221-0.561-0.5-0.506-0.935c0.047-0.369,0.244-0.537,0.668-0.626
		c1.058-0.222,2.105-0.483,3.195-0.493c0.086,0,0.172-0.051,0.332-0.101c-0.264-0.437-0.604-0.725-0.938-1.02
		c-0.143-0.125-0.34-0.247-0.389-0.407c-0.162-0.533-0.586-0.709-1.033-0.907c-0.898-0.398-1.004-1.327-0.25-1.958
		c0.201-0.169,0.408-0.254,0.658-0.146c0.461,0.199,0.938,0.37,1.368,0.619c0.453,0.263,0.898,0.408,1.435,0.359
		c0.547-0.052,1.106,0.03,1.652-0.035c0.661-0.08,1.334-0.189,1.961-0.405c1.086-0.375,2.137-0.852,3.213-1.259
		c0.209-0.079,0.475-0.082,0.696-0.041c0.683,0.127,1.354,0.311,2.035,0.441c1.287,0.247,2.522,0.601,3.513,1.518
		c1.762-1.13,3.323-2.443,4.879-3.767c2.453-2.086,4.897-4.182,7.354-6.264c2.517-2.132,5.211-4.017,7.979-5.807
		c1.246-0.808,2.426-1.724,3.617-2.613c0.748-0.558,1.465-0.335,1.73,0.579c0.035,0.115,0.074,0.229,0.105,0.345
		c0.137,0.525,0.088,0.634-0.359,0.964c-0.963,0.708-1.725,1.615-2.457,2.567c0.662-0.414,1.305-0.863,1.992-1.234
		c1.287-0.696,2.578-1.393,3.906-2.003c0.688-0.315,1.465-0.438,2.196-0.667c0.492-0.152,0.899-0.082,1.22,0.366
		c0.055,0.581-0.166,1.021-0.599,1.476c-0.787,0.831-1.459,1.773-2.287,2.806c0.692-0.225,1.228-0.402,1.767-0.564
		c0.309-0.093,0.616-0.112,0.869,0.155c0.348,0.37,0.317,1.205-0.064,1.558c-0.957,0.882-1.975,1.685-3.086,2.364
		c-0.178,0.109-0.34,0.241-0.51,0.363c0.012,0.048,0.022,0.097,0.037,0.146c0.211-0.031,0.422-0.062,0.633-0.095
		c0.912-0.146,1.473,0.319,1.414,1.226c-0.013,0.206-0.187,0.45-0.357,0.589c-0.824,0.658-1.646,1.322-2.518,1.916
		c-0.89,0.604-1.832,1.129-2.722,1.789c0.115-0.018,0.234-0.021,0.345-0.054c0.551-0.166,1.098-0.348,1.649-0.507
		c0.574-0.165,0.906-0.083,1.09,0.242c0.261,0.456,0.191,1.152-0.215,1.452c-0.541,0.396-1.104,0.775-1.699,1.076
		c-0.856,0.43-1.772,0.741-2.627,1.175c-1.282,0.648-2.539,1.354-3.801,2.047c-0.842,0.461-1.676,0.937-2.515,1.409
		c-0.096,0.055-0.184,0.127-0.248,0.293c0.226-0.011,0.455,0,0.677-0.034c0.733-0.113,1.463-0.27,2.198-0.359
		c0.736-0.09,1.479-0.128,2.218-0.175c0.465-0.03,0.905-0.091,1.239-0.472c0.074-0.085,0.199-0.172,0.304-0.177
		c1.185-0.054,2.178-0.729,3.299-0.981c0.679-0.152,1.343-0.364,2.017-0.53c0.367-0.091,0.731,0.115,0.877,0.452
		c0.174,0.403,0.102,0.672-0.275,0.928c-0.275,0.187-0.564,0.353-0.795,0.656c0.26-0.079,0.529-0.135,0.777-0.242
		c0.85-0.363,1.746-0.513,2.653-0.606c0.263-0.027,0.531-0.03,0.791,0.002c0.414,0.052,0.738,0.275,0.841,0.688
		c0.102,0.411-0.064,0.757-0.431,0.986c-0.629,0.396-1.256,0.798-1.896,1.175C225.758,29.786,225.1,30.135,224.454,30.497z
		 M211.159,31.598c-0.32,0.062-0.64,0.125-0.959,0.187C210.549,31.857,210.898,31.924,211.159,31.598
		c0.491,0.206,0.987,0.119,1.481,0.021c0.924-0.12,1.203-0.105,1.508,0.073c-0.03,0.034-0.057,0.092-0.092,0.098
		c-0.186,0.032-0.377,0.026-0.553,0.081c-0.135,0.042-0.25,0.155-0.379,0.229c-0.324-0.034-0.646-0.067-0.971-0.101
		c-0.002,0.032-0.004,0.064-0.006,0.097c0.326,0,0.649,0,0.975,0c0.668-0.142,1.342-0.218,2.102-0.259
		c-0.418,0.423-0.748,0.756-1.076,1.088c-0.338,0.02-0.674,0.038-1.012,0.058c-0.381,0.04-0.766,0.062-1.143,0.123
		c-1.652,0.269-3.309,0.517-4.951,0.841c-0.654,0.13-1.273,0.44-2.043,0.717c0.215,0.059,0.27,0.092,0.307,0.079
		c1.01-0.367,2.142-0.153,3.121-0.663c0.076-0.04,0.193-0.054,0.273-0.024c0.48,0.178,0.879,0.008,1.285-0.242
		c0.197-0.123,0.443-0.183,0.676-0.232c0.703-0.152,1.408-0.281,2.111-0.434c0.125-0.027,0.233-0.118,0.352-0.177
		c0.342-0.017,0.682-0.031,1.023-0.046c0.281-0.057,0.561-0.134,0.844-0.163c1.232-0.133,2.453-0.472,3.713-0.229
		c0.207,0.04,0.443-0.077,0.729-0.133c-0.36-0.625-0.521-1.169,0.213-1.674c-0.713,0.082-1.28,0.158-1.854,0.212
		c-1.289,0.122-2.58,0.221-3.867,0.354c-0.436,0.045-0.902,0.021-1.275,0.334C212.152,31.619,211.654,31.608,211.159,31.598z
		 M203.521,33.512c-0.809,0.128-1.619,0.258-2.428,0.387c0.012,0.06,0.021,0.121,0.033,0.181c0.742-0.122,1.486-0.24,2.229-0.373
		C203.42,33.696,203.465,33.579,203.521,33.512c0.66,0.131,1.312,0.121,1.935-0.229C204.811,33.36,204.167,33.436,203.521,33.512z
		 M217.652,20.765c-0.067-0.001-0.149-0.027-0.207,0c-1.438,0.66-2.875,1.324-4.309,1.994c-0.025,0.012-0.029,0.068-0.055,0.134
		c0.18,0.065,0.352,0.13,0.549,0.202c-0.133,0.161-0.256,0.312-0.377,0.461c0.426-0.098,0.859-0.201,1.135-0.468
		c0.703-0.674,1.603-1.044,2.346-1.646c0.295-0.239,0.603-0.462,0.904-0.693c0.158-0.092,0.316-0.185,0.476-0.277
		c-0.033-0.04-0.066-0.08-0.099-0.12C217.895,20.489,217.773,20.627,217.652,20.765z M215.532,30.931
		c0.715-0.08,1.43-0.169,2.145-0.239c0.597-0.058,1.197-0.146,1.791-0.127c0.732,0.021,1.908-0.276,2.578-0.754
		c-0.519-0.107-1.955,0.039-2.567,0.277c-0.34,0.133-0.664,0.278-1.033,0.088c-0.096-0.051-0.236-0.035-0.354-0.021
		c-0.668,0.081-1.332,0.184-2,0.251c-0.352,0.035-0.518,0.206-0.553,0.535c-0.281-0.226-0.563-0.341-0.97,0.092
		C214.979,30.989,215.256,30.96,215.532,30.931z M195.48,32.211c0.097-0.491,0.025-1.025,0.441-1.263
		c-0.107-0.354-0.191-0.633-0.279-0.91c-0.026-0.091-0.037-0.214-0.102-0.261c-0.346-0.258-0.258-0.573-0.088-0.929
		c-0.537-0.369-1.063-0.704-1.561-1.076c-0.382-0.286-0.804-0.563-1.078-0.938c-0.806-1.094-1.918-1.63-3.188-1.917
		c-0.199-0.045-0.437-0.029-0.633,0.031c-0.433,0.133-0.849,0.314-1.271,0.473c-0.246,0.094-0.619,0.11-0.723,0.286
		c-0.367,0.628-0.943,0.706-1.566,0.865c-0.752,0.192-1.449,0.59-2.209,0.915c0.099,0.104,0.193,0.206,0.289,0.308
		c0.262,0.279,0.562,0.533,0.777,0.845c0.443,0.634,0.146,1.192-0.625,1.225c-0.191,0.008-0.383-0.042-0.574-0.043
		c-0.146-0.001-0.291,0.032-0.393,0.044c1.104,1.239,2.184,2.456,3.268,3.667c0.303,0.335,0.377,0.696,0.266,1.132
		c-0.057,0.217-0.086,0.491-0.002,0.686c0.592,1.361,0.99,2.816,1.822,4.064c0.613,0.916,1.225,1.848,1.963,2.658
		c0.853,0.937,1.848,1.741,2.769,2.617c0.532,0.506,1.135,0.881,1.823,1.128c0.746,0.266,1.498,0.521,2.228,0.829
		c1.797,0.755,3.644,1.021,5.567,0.67c0.33-0.061,0.66-0.141,0.992-0.155c0.621-0.026,1.244-0.017,1.869-0.014
		c1.187,0.007,2.271-0.33,3.277-0.95c0.51-0.313,1.02-0.631,1.557-0.895c0.857-0.424,1.748-0.783,2.605-1.21
		c0.314-0.157,0.598-0.403,0.855-0.651c2.014-1.941,2.891-4.466,3.631-7.139c-0.957,0.134-1.877,0.268-2.797,0.393
		c-1.713,0.231-3.431,0.439-5.14,0.694c-0.823,0.123-1.707-0.264-2.478,0.296c-0.014,0.01-0.049,0.002-0.069-0.006
		c-0.447-0.179-0.856,0.351-1.322,0.076c-0.039-0.023-0.168,0.144-0.271,0.172c-0.358,0.099-0.758,0.311-1.073,0.226
		c-0.375-0.103-0.705-0.041-1.056-0.024c-0.254,0.013-0.506,0.053-0.76,0.08c-0.01-0.052-0.021-0.104-0.031-0.154
		c0.535-0.119,1.07-0.237,1.66-0.368c-0.602-0.167-1.244,0.246-1.606-0.267c-0.224,0.139-0.386,0.317-0.57,0.344
		c-1.805,0.252-3.61,0.479-5.42,0.711c-0.067,0.009-0.159,0.032-0.211,0.002c-0.153-0.093-0.385-0.19-0.412-0.323
		c-0.03-0.139,0.101-0.402,0.229-0.466c0.271-0.132,0.589-0.19,0.892-0.239c0.353-0.056,0.711-0.07,1.082-0.104
		c-0.058-0.141-0.146-0.263-0.117-0.307c0.13-0.193,0.257-0.459,0.445-0.527c0.51-0.187,1.051-0.284,1.604-0.423
		c0.004-0.253,0.188-0.334,0.457-0.381c0.78-0.136,1.559-0.302,2.334-0.456c-0.271-0.07-0.535-0.101-0.791-0.064
		c-1.045,0.146-2.093,0.298-3.134,0.479c-0.487,0.084-0.944,0.08-1.372-0.132c-0.339-1.076,0.104-1.19,0.895-1.23
		c0.295-0.017,0.588-0.022,1.033-0.039c-0.851-0.394-0.887-0.479-0.744-1.319c0.027-0.16,0.006-0.329,0.006-0.472
		c-0.537-0.482-1.072-0.508-1.652-0.126C196.366,32.631,195.917,32.72,195.48,32.211z M223.135,14.076
		c-0.063-0.073-0.125-0.146-0.186-0.221c-0.775,0.456-1.566,0.886-2.32,1.373c-1.129,0.729-2.232,1.499-3.346,2.253
		c-0.455,0.309-0.945,0.457-1.5,0.388c-0.301-0.037-0.482-0.197-0.551-0.483c-0.107-0.444,0.164-0.986,0.559-1.218
		c0.559-0.324,1.111-0.665,1.65-1.02c0.602-0.396,1.17-0.846,1.781-1.225c2.102-1.297,3.944-2.892,5.575-4.741
		c0.095-0.108,0.168-0.235,0.349-0.489c-0.388,0.144-0.609,0.222-0.83,0.308c-2.978,1.176-5.611,2.938-8.185,4.802
		c-1.848,1.338-3.664,2.719-5.479,4.104c-1.68,1.282-3.342,2.585-5.002,3.896c-1.68,1.323-3.342,2.669-5.016,3.997
		c-0.461,0.365-0.943,0.702-1.504,1.118c0.197,0,0.275,0.021,0.334-0.003c0.889-0.359,1.789-0.69,2.654-1.099
		c1.148-0.542,2.273-1.139,3.402-1.722c2.817-1.452,5.631-2.914,8.453-4.362c1.021-0.524,2.09-0.966,3.086-1.536
		c2.024-1.16,3.856-2.611,5.735-3.987C222.893,14.139,223.021,14.119,223.135,14.076z M216.032,33.714
		c-0.166,0.012-0.334,0.012-0.498,0.035c-1.115,0.164-2.229,0.345-3.349,0.498c-0.879,0.121-1.77,0.329-2.641,0.278
		c-0.711-0.042-1.367,0.061-2.043,0.184c-0.871,0.158-1.74,0.318-2.613,0.469c-1.133,0.195-2.268,0.379-3.402,0.575
		c-0.192,0.034-0.379,0.111-0.567,0.168c0.213,0.075,0.401,0.068,0.588,0.036c0.793-0.136,1.58-0.269,2.39-0.338
		c2.104-0.178,4.199-0.458,6.297-0.713c1.451-0.178,2.897-0.385,4.35-0.572c0.15-0.019,0.309,0.021,0.463,0.032
		c-0.113,0.206-0.262,0.296-0.418,0.369c-0.127,0.058-0.322,0.054-0.385,0.146c-0.264,0.397-0.666,0.418-1.074,0.471
		c-0.977,0.124-1.955,0.246-2.928,0.399c-1.186,0.188-2.363,0.41-3.574,0.384c-0.377-0.009-0.758,0.134-1.137,0.208
		c3.572-0.018,7.105-0.314,10.623-1.068C215.864,34.751,215.52,34.273,216.032,33.714z M215.188,11.589
		c1.361-0.507,2.691-1.674,3.076-2.625C217.118,9.742,216.018,10.512,215.188,11.589z M221.792,18.004
		c-1.201,0.349-2.74,1.351-3.041,1.985C219.793,19.374,220.857,18.79,221.792,18.004z M214.241,31.074
		c-0.011-0.05-0.021-0.101-0.029-0.15c-2.096,0.27-4.19,0.539-6.285,0.809c0.007,0.048,0.013,0.097,0.019,0.146
		C210.043,31.609,212.141,31.341,214.241,31.074z M206.504,37.337c0.441-0.105,0.883-0.195,1.314-0.32
		c0.408-0.117,0.883,0.017,1.227-0.411c-0.951,0.102-1.9,0.203-2.883,0.308C206.297,37.081,206.393,37.2,206.504,37.337z
		 M205.715,24.895c0.041,0.053,0.08,0.105,0.121,0.159c0.717-0.37,1.432-0.739,2.146-1.107c-0.025-0.052-0.053-0.103-0.08-0.154
		C207.174,24.16,206.445,24.527,205.715,24.895z M212.551,21.927c0.027,0.046,0.053,0.093,0.082,0.14
		c0.736-0.382,1.475-0.764,2.211-1.146c-0.027-0.055-0.057-0.109-0.086-0.166C213.965,21.033,213.288,21.54,212.551,21.927z
		 M203.377,36.769c0.197-0.042,0.393-0.089,0.592-0.125c0.201-0.036,0.404-0.062,0.605-0.09
		C204.168,36.59,203.73,36.332,203.377,36.769z M205.229,25.354c-0.014-0.048-0.028-0.098-0.043-0.146
		c-0.291,0.14-0.584,0.278-0.875,0.417c0.021,0.041,0.037,0.082,0.058,0.122C204.652,25.617,204.941,25.485,205.229,25.354z
		 M198.803,37.227c0.008,0.027,0.014,0.057,0.021,0.085c0.211-0.051,0.422-0.104,0.635-0.154c-0.008-0.034-0.018-0.068-0.025-0.102
		C199.223,37.113,199.014,37.17,198.803,37.227z M207.293,52.769c-0.074,0.146-0.135,0.237-0.166,0.34
		c-0.008,0.03,0.105,0.129,0.113,0.124c0.088-0.061,0.186-0.123,0.238-0.21C207.495,52.993,207.385,52.89,207.293,52.769z
		 M212.221,29.004c0.412,0.103,0.412,0.103,0.736-0.141C212.643,28.924,212.432,28.964,212.221,29.004z M208.395,32.892
		c0-0.05-0.002-0.103-0.002-0.152c-0.145,0.022-0.291,0.044-0.436,0.067c0.008,0.047,0.018,0.094,0.025,0.141
		C208.12,32.929,208.256,32.911,208.395,32.892z"/>
	<path fill="#FFFFFF" d="M68.372,82.383c0.206,0.705,0.581,1.259,1.006,1.777c1.183,1.447,2.754,2.293,4.506,2.844
		c1.812,0.57,3.632,0.606,5.471,0.125c3.576-0.938,6.438-2.936,8.714-5.815c0.224-0.283,0.429-0.581,0.661-0.855
		c0.287-0.341,0.45-0.354,0.763-0.021c0.494,0.524,0.966,1.069,1.44,1.615c0.521,0.598,1.009,1.229,1.558,1.798
		c0.431,0.445,0.41,0.846,0.125,1.354c-1.506,2.679-3.544,4.835-6.204,6.388c-2.466,1.441-5.148,2.228-7.963,2.596
		c-2.458,0.32-4.9,0.242-7.283-0.487c-4.448-1.362-7.682-4.187-9.72-8.346c-1.603-3.27-2.455-6.739-2.197-10.393
		c0.356-5.063,2.319-9.396,6.268-12.688c2.417-2.016,5.283-2.993,8.394-3.302c6.713-0.665,13.053,3.951,15.312,9.905
		c0.389,1.026,0.705,2.099,0.908,3.178c0.285,1.523-0.482,2.9-1.93,3.494c-1.666,0.684-3.355,1.314-5.06,1.893
		c-4.595,1.56-9.203,3.078-13.805,4.612C69.019,82.158,68.705,82.269,68.372,82.383z M66.417,74.164
		c0.027,0.334,0.034,0.673,0.085,1.005c0.205,1.345,0.429,1.489,1.759,1.16c4.114-1.021,8.08-2.479,11.994-4.086
		c0.266-0.11,0.524-0.242,0.771-0.392c0.483-0.295,0.516-0.399,0.352-0.946c-0.049-0.16-0.109-0.317-0.172-0.473
		c-0.828-2.054-2.406-3.313-4.391-4.127c-1.885-0.775-3.782-0.74-5.587,0.173C68.1,68.059,66.735,70.791,66.417,74.164z"/>
	<path fill="#FFFFFF" d="M119.656,47.788c2.68,0,5.263,0,7.917,0c0,3.147,0,6.26,0,9.456c1.711,0,3.354,0,5.102,0
		c0.015,2.3,0.005,4.515,0.009,6.813c-1.722,0-3.365,0-5.048,0c0,7.185,0,14.288,0,21.467c1.733,0,3.452,0,5.146,0
		c0.17,0.584,0.2,5.934,0.051,6.775c-0.222,0.011-0.455,0.029-0.688,0.029c-2.596,0.003-5.19,0.003-7.787,0
		c-0.336,0-0.674-0.004-1.009-0.026c-2.175-0.155-3.484-1.45-3.656-3.626c-0.034-0.432-0.03-0.865-0.03-1.298
		c-0.001-7.449-0.001-14.899-0.001-22.352c0-0.285,0-0.571,0-0.946c-1.249-0.073-2.463,0.013-3.702-0.052c0-2.264,0-4.464,0-6.738
		c1.22,0,2.411,0,3.696,0C119.656,54.086,119.656,50.955,119.656,47.788z"/>
	<path fill="#FFFFFF" d="M99.39,94.453c-0.601,0-1.202,0.02-1.802-0.005c-0.715-0.027-0.984-0.275-1.13-0.969
		c-0.021-0.094-0.029-0.191-0.037-0.287c-0.147-1.698-0.293-3.397-0.438-5.096c-0.011-0.119-0.014-0.24-0.014-0.359
		c0.002-0.615,0.17-0.861,0.773-0.902c0.596-0.041,1.203-0.019,1.796,0.047c1.626,0.176,3.218,0.014,4.768-0.476
		c0.564-0.178,1.113-0.459,1.607-0.787c1.511-1.002,2.202-3.582,0.521-5.304c-0.68-0.698-1.477-1.224-2.317-1.699
		c-1.609-0.91-3.232-1.8-4.819-2.751c-2.236-1.34-3.582-3.348-3.977-5.898c-0.749-4.847,0.99-9.475,6.164-12.021
		c2.423-1.193,5.011-1.615,7.685-1.639c0.53-0.005,0.891,0.209,1.032,0.714c0.514,1.848,1.04,3.694,1.506,5.557
		c0.178,0.71-0.008,0.906-0.743,1.009c-1.451,0.204-2.902,0.401-4.357,0.574c-0.81,0.096-1.528,0.392-2.198,0.837
		c-1.157,0.774-1.797,2.671-0.492,4.096c0.676,0.735,1.495,1.271,2.342,1.78c1.627,0.979,3.267,1.934,4.857,2.967
		c1.51,0.982,2.563,2.383,3.26,4.037c1.51,3.593,1.309,9.302-3.03,12.938c-2.413,2.021-5.185,3.173-8.298,3.519
		c-0.882,0.1-1.772,0.131-2.657,0.195C99.392,94.503,99.391,94.478,99.39,94.453z"/>
	<path fill="#FFFFFF" d="M161.553,89.529c4.678,0,9.191,0,13.744,0c0.146-0.235,0.303-0.475,0.451-0.72
		c1.127-1.873,2.299-3.724,3.357-5.636c0.446-0.81,1.02-1.063,1.949-0.955c-0.035,0.414-0.07,0.837-0.105,1.257
		c-0.221,2.636-0.449,5.269-0.654,7.902c-0.082,1.07-0.057,1.068-1.107,1.063c-5.914-0.038-11.828-0.089-17.739-0.103
		c-2.74-0.006-5.48,0.07-8.222,0.095c-0.289,0.002-0.647,0.156-0.854-0.193c-0.235-0.402,0.146-0.617,0.317-0.87
		c6.181-9.139,12.369-18.27,18.556-27.404c0.187-0.271,0.358-0.552,0.596-0.916c-4.543,0-8.973,0-13.493,0
		c-0.734,2.257-1.482,4.554-2.242,6.889c-0.433,0.083-0.853,0.163-1.375,0.263c-0.285-1.688-0.578-3.354-0.849-5.026
		c-0.264-1.645-0.674-3.266-0.93-5.014c0.606,0,1.082-0.001,1.557,0.001c6.947,0.023,13.896,0.056,20.843,0.07
		c1.537,0.003,3.075-0.048,4.612-0.072c0.17-0.002,0.341-0.021,0.504,0.007c0.308,0.053,0.421,0.305,0.271,0.583
		c-0.09,0.168-0.211,0.32-0.318,0.481c-6.1,9.133-12.199,18.267-18.299,27.4C161.95,88.885,161.793,89.148,161.553,89.529z"/>
	<path fill="#FFFFFF" d="M199.303,87.665c-2.82-0.077-5.523-0.563-7.979-1.978c-4.104-2.363-6.468-5.911-7.037-10.63
		c-0.25-2.074-0.168-4.135,0.391-6.146c1.193-4.291,3.927-7.24,8.093-8.729c3.883-1.388,7.866-1.385,11.719,0.104
		c5.041,1.952,7.961,5.696,8.693,11.08c0.329,2.431,0.262,4.86-0.513,7.203c-1.576,4.773-4.905,7.636-9.797,8.668
		C201.706,87.485,200.495,87.528,199.303,87.665z M198.827,81.48c0.651-0.038,1.59-0.063,2.521-0.156
		c2.07-0.209,4.07-0.678,5.902-1.718c2.15-1.222,3.445-3.021,3.684-5.513c0.289-3.01-0.809-5.577-3.602-7.12
		c-0.91-0.502-1.883-0.848-2.896-1.068c-3.063-0.673-6.147-0.707-9.235-0.236c-1.769,0.271-3.459,0.804-5.023,1.694
		c-2.178,1.243-3.465,3.077-3.643,5.606c-0.203,2.85,0.786,5.145,3.311,6.626c0.738,0.435,1.554,0.764,2.367,1.031
		C194.264,81.304,196.4,81.417,198.827,81.48z"/>
	<path fill="#FFFFFF" d="M139.043,57.31c2.578,0,5.115,0,7.703,0c0,11.65,0,23.274,0,34.899c-0.486,0.148-6.572,0.199-7.703,0.057
		C139.043,80.629,139.043,68.989,139.043,57.31z"/>
	<path fill="#FFFFFF" d="M184.189,92.688c0-0.98,0-1.892,0-2.854c9.703,0,19.381,0,29.101,0c0,0.945,0,1.872,0,2.854
		C203.605,92.688,193.932,92.688,184.189,92.688z"/>
	<path fill="#FFFFFF" d="M138.941,52.192c0-2.693,0-5.354,0-8.064c2.642,0,5.242,0,7.888,0c0,2.688,0,5.351,0,8.012
		C146.338,52.301,140.034,52.351,138.941,52.192z"/>
	<path fill="#FFFFFF" d="M198.803,37.227c0.211-0.058,0.42-0.114,0.631-0.17c0.008,0.034,0.019,0.067,0.025,0.102
		c-0.213,0.051-0.424,0.104-0.635,0.154C198.816,37.284,198.811,37.255,198.803,37.227z"/>
	<path fill="#FFFFFF" d="M213.124,32.098c-0.324,0-0.647,0-0.976,0c0.002-0.032,0.004-0.064,0.006-0.097
		c0.324,0.033,0.646,0.066,0.974,0.104C213.131,32.108,213.124,32.098,213.124,32.098z"/>
	<path fill="#FFFFFF" d="M207.293,52.769c0.092,0.121,0.201,0.224,0.186,0.254c-0.053,0.087-0.149,0.149-0.237,0.21
		c-0.009,0.005-0.121-0.094-0.113-0.124C207.159,53.007,207.219,52.916,207.293,52.769z"/>
	<path fill="#FFFFFF" d="M217.652,20.765c0.121-0.138,0.242-0.276,0.363-0.413c0.031,0.04,0.064,0.08,0.099,0.12
		c-0.158,0.093-0.316,0.186-0.476,0.277L217.652,20.765z"/>
	<path fill="#FFFFFF" d="M213.137,32.985c0.338-0.02,0.674-0.039,1.012-0.058h-0.002c-0.34,0.015-0.68,0.029-1.021,0.045
		C213.124,32.972,213.137,32.985,213.137,32.985z"/>
	<path fill="#FFFFFF" d="M188.227,29.821c-1.237-0.013-1.756-0.622-1.588-1.657c0.031-0.204-0.002-0.419-0.012-0.63
		c-0.02-0.404,0.139-0.702,0.512-0.748c0.76-0.093,1.525-0.212,2.289,0c0.416,0.116,0.732,0.355,0.939,0.73
		c0.262,0.475,0.191,0.926-0.201,1.304C189.581,29.39,188.885,29.735,188.227,29.821z"/>
	<path fill="#FFFFFF" d="M204.038,40.95c0.147-0.051,0.295-0.128,0.448-0.146c1.994-0.249,3.992-0.48,5.986-0.736
		c0.807-0.104,1.604-0.28,2.41-0.373c0.455-0.053,0.939-0.179,1.41,0.11c-0.182,0.433-0.508,0.651-0.91,0.763
		c-0.252,0.07-0.518,0.105-0.777,0.131c-1.69,0.168-3.381,0.346-5.076,0.482c-0.52,0.042-1.049-0.041-1.573-0.059
		c-0.404-0.013-0.812-0.02-1.217-0.019c-0.23,0-0.462,0.021-0.693,0.032C204.043,41.074,204.04,41.012,204.038,40.95z"/>
	<path fill="#FFFFFF" d="M204.816,39.085c0.07-0.046,0.136-0.122,0.209-0.135c3.271-0.561,6.554-1.032,9.949-1.414
		c-0.266,0.644-0.684,0.863-1.199,0.928c-0.95,0.118-1.903,0.218-2.854,0.329c-0.758,0.088-1.517,0.199-2.274,0.269
		c-0.281,0.024-0.57-0.047-0.854-0.07c-0.112-0.009-0.267-0.05-0.336,0.005c-0.365,0.291-0.742,0.228-1.151,0.131
		c-0.224-0.052-0.472,0.009-0.707,0.023c-0.25,0.016-0.498,0.038-0.748,0.057C204.838,39.166,204.829,39.125,204.816,39.085z"/>
	<path fill="#FFFFFF" d="M211.924,42.605c-0.018,0.626-0.016,0.631-0.48,0.704c-0.188,0.027-0.383,0.031-0.573,0.045
		c-1.269,0.083-2.535,0.175-3.806,0.243c-0.272,0.015-0.555-0.058-0.832-0.079c-0.188-0.016-0.375-0.004-0.563-0.021
		c-0.146-0.013-0.291-0.05-0.523-0.092C205.771,43.077,211.09,42.471,211.924,42.605z"/>
	<path fill="#FFFFFF" d="M203.936,39.157c-0.707,0.312-1.367,0.265-1.981,0.306c-1.472,0.099-2.924,0.5-4.416,0.292
		c1.246-0.391,2.549-0.385,3.912-0.582c-0.203-0.076-0.32-0.12-0.519-0.194c0.523-0.35,1.07-0.191,1.551-0.331
		C203.055,38.48,203.404,38.874,203.936,39.157z"/>
	<path fill="#FFFFFF" d="M203.9,40.808c-0.534,0.068-1.09,0.379-1.604-0.149c-0.34,0.481-1.66,0.696-2.862,0.411
		c0.217-0.312,0.539-0.308,0.815-0.34c0.308-0.037,0.576-0.16,0.856-0.243c0.65-0.192,1.345-0.494,2.047-0.056
		c0.22,0.135,0.517,0.141,0.777,0.206C203.92,40.695,203.911,40.751,203.9,40.808z"/>
	<path fill="#FFFFFF" d="M203.234,40.331c0.681-0.294,0.918-0.303,1.482-0.1C204.277,40.418,204.051,40.437,203.234,40.331z"/>
	<path fill="#FFFFFF" d="M214.836,31.519c0.537-0.209,1.1-0.101,1.668-0.006c-0.111,0.023-0.223,0.061-0.336,0.068
		c-0.439,0.034-0.881,0.06-1.322,0.087C214.842,31.618,214.84,31.568,214.836,31.519z"/>
</g>
</svg>
