<?xml version="1.0" encoding="utf-8"?>
<!-- Generator: Adobe Illustrator 16.0.3, SVG Export Plug-In . SVG Version: 6.00 Build 0)  -->
<!DOCTYPE svg PUBLIC "-//W3C//DTD SVG 1.1//EN" "http://www.w3.org/Graphics/SVG/1.1/DTD/svg11.dtd">
<svg version="1.1" id="Capa_1" xmlns="http://www.w3.org/2000/svg" xmlns:xlink="http://www.w3.org/1999/xlink" x="0px" y="0px"
	 width="935.43px" height="441px" viewBox="0 0 935.43 441" enable-background="new 0 0 935.43 441" xml:space="preserve">
<g>
	<path fill-rule="evenodd" clip-rule="evenodd" d="M91.154,152.219c1.288,0.013,1.404,1.169,1.805,1.958
		c5.389,10.623,10.823,21.223,16.091,31.905c12.87,26.096,25.728,52.199,38.446,78.369c4.61,9.486,8.809,19.173,13.198,28.767
		c0.698,1.525,1.387,3.058,2.139,4.558c0.342,0.683,0.828,1.294,1.473,2.28c0.787-1.265,1.477-2.135,1.911-3.117
		c2.036-4.604,4.073-9.21,5.981-13.868c13.155-32.097,26.278-64.207,39.414-96.312c0.39-0.951,0.798-1.894,1.282-3.038
		c7.215,0.261,14.391,0.52,21.455,0.775c0.165,0.14,0.229,0.183,0.278,0.24c0.052,0.06,0.121,0.127,0.13,0.198
		c0.061,0.472,0.152,0.946,0.15,1.42c-0.269,66.87-0.544,133.739-0.83,200.609c0,0.11-0.16,0.22-0.273,0.365
		c-1.426-2.1-2.672-4.333-4.295-6.245c-3.725-4.386-7.617-8.629-11.479-12.897c-1.072-1.185-2.193-2.349-3.43-3.353
		c-1.508-1.223-1.927-2.697-1.957-4.591c-0.34-20.951-0.762-41.901-1.152-62.853c-0.293-15.752-0.566-31.505-0.87-47.257
		c-0.017-0.836-0.226-1.668-0.337-2.452c-1.57-0.307-1.879,0.729-2.262,1.557c-1.039,2.249-2.072,4.503-3.014,6.794
		c-7.441,18.113-14.897,36.22-22.268,54.361c-3.127,7.699-6.105,15.459-9.043,23.232c-0.752,1.989-1.941,2.861-4.029,3.076
		c-4.251,0.438-8.467,0.25-12.683-0.267c-1.87-0.229-3.066-1.136-3.874-3.024c-11.979-27.998-24.04-55.961-36.106-83.922
		c-0.476-1.102-0.691-2.44-2.353-3.396c-0.327,29.663,0.068,58.954,0.046,88.202c-2.029,0.532-16.253,0.707-23.546,0.326
		C91.154,273.819,91.154,213.019,91.154,152.219z"/>
	<path fill-rule="evenodd" clip-rule="evenodd" d="M844.275,310.139c-0.137,0.359-0.369,0.713-0.396,1.08
		c-1.105,14.632-12.309,24.501-23.725,27.699c-7.152,2.004-14.385,1.938-21.637,0.796c-6.191-0.976-12.105-2.917-17.807-5.512
		c-0.58-0.265-1.154-0.545-1.721-0.84c-0.131-0.068-0.215-0.226-0.322-0.346c1.734-9.969,3.471-19.937,5.234-30.067
		c1.139-0.192,2.281-0.386,3.582-0.606c1.197,4.421,2.346,8.646,3.486,12.874c0.977,3.625,1.975,7.244,2.895,10.884
		c0.301,1.191,0.844,1.939,2.066,2.347c6.451,2.149,13.002,2.699,19.586,0.908c7.623-2.075,11.893-7.773,11.973-15.677
		c0.018-1.747-0.17-3.511-0.424-5.242c-0.611-4.155-2.617-7.594-6.045-9.974c-2.543-1.765-5.293-3.285-8.092-4.613
		c-3.68-1.744-7.563-3.058-11.236-4.809c-3.307-1.576-6.578-3.3-9.641-5.302c-6.131-4.007-9.662-9.851-11.162-16.969
		c-1.322-6.279-1.354-12.581,0.244-18.783c3.08-11.956,10.973-19.163,22.742-22.3c5.803-1.546,11.73-1.416,17.641-0.909
		c5.918,0.508,11.68,1.805,17.211,4.026c0.654,0.263,1.285,0.589,1.975,0.906c-1.615,9.53-3.215,18.963-4.842,28.555
		c-1.021,0.249-2.094,0.511-3.344,0.816c-0.252-0.62-0.541-1.166-0.699-1.746c-1.725-6.319-3.482-12.63-5.096-18.977
		c-0.371-1.457-1.08-2.144-2.463-2.488c-5.348-1.332-10.725-1.667-16.16-0.651c-0.783,0.146-1.563,0.341-2.322,0.581
		c-8.367,2.65-12.553,9.459-11.275,18.152c0.717,4.884,2.965,8.781,7.209,11.328c2.801,1.68,5.719,3.189,8.68,4.571
		c3.908,1.824,7.938,3.391,11.865,5.173c4.531,2.056,8.775,4.6,12.586,7.83c4.404,3.734,7.422,8.328,8.693,14.003
		c0.273,1.221,0.494,2.453,0.74,3.681C844.275,303.739,844.275,306.939,844.275,310.139z"/>
	<path fill-rule="evenodd" clip-rule="evenodd" d="M799.268,128.98c-0.074,0.38-0.115,0.463-0.102,0.537
		c0.611,3.571,0.488,3.885-2.891,5.44c-2.9,1.336-5.855,2.556-8.781,3.843c-0.867,0.382-1.711,0.817-2.568,1.229
		c0.748,1.42,1.496,2.677,2.059,4.012c0.162,0.383-0.051,1.2-0.377,1.462c-1.1,0.881-2.244,1.823-3.535,2.312
		c-1.012,0.383-1.588,0.876-2.025,1.795c-0.439,0.92-1.109,1.732-1.537,2.656c-0.797,1.725-1.73,3.438-2.186,5.261
		c-1.104,4.407-2.979,8.409-5.658,12.045c-3.553,4.819-7.561,9.111-13.373,11.258c-0.283,0.105-0.521,0.337-0.875,0.573
		c2.627,4.758,6.074,8.801,9.877,12.915c1.203-0.741,2.408-1.471,3.6-2.225c0.932-0.59,1.891-0.978,2.871-0.19
		c0.922,0.738,1.131,1.803,0.723,2.828c-0.541,1.363-1.285,2.646-2.219,4.516c1.043-0.973,1.695-1.597,2.363-2.202
		c1.414-1.276,2.557-1.491,3.625-0.698c1.26,0.935,1.52,2.165,0.697,3.822c-0.49,0.986-1.111,1.907-1.787,3.05
		c1.102-0.248,2.051-0.52,3.02-0.667c1.965-0.298,2.744,0.072,3.367,1.476c0.609,1.375,0.354,2.295-0.998,3.57
		c-0.172,0.163-0.359,0.313-0.639,0.555c0.037,0.241,0.07,0.539,0.127,0.831c0.314,1.588,0.039,2.417-1.039,3.114
		c-1.33,0.857-2.926,0.865-4.035,0.053c-0.896-0.656-1.842-1.244-2.715-1.928c-0.49-0.385-1.195-0.865-1.254-1.367
		c-0.279-2.411-2.197-3.687-3.6-5.215c-5.076-5.537-10.314-10.927-15.52-16.345c-0.936-0.975-2.01-1.819-3.193-2.878
		c-4.273,2.678-8.887,4.513-14.311,4.885c0.465,0.589,0.678,1.001,1.012,1.257c2.182,1.673,3.646,3.993,5.482,5.959
		c2.387,2.554,4.357,5.7,8.064,6.819c1.75,0.527,2.543,2.018,2.156,3.21c-0.529,1.626-2.201,2.419-4.117,1.642
		c-1.324-0.537-2.084-0.177-2.879,0.805c-1.057,1.304-2.146,2.587-3.299,3.806c-1.73,1.83-3.52,2.149-4.803,0.957
		c-1.453-1.352-1.375-3.403,0.197-5.327c0.145-0.176,0.246-0.387,0.307-0.485c-1.586-1.505-3.168-2.906-4.625-4.426
		c-0.898-0.935-0.785-3.774,0.07-4.753c0.688-0.786,1.51-1.175,2.549-0.619c0.402,0.215,0.82,0.397,1.414,0.683
		c-1.107-2.032-4.977-5.743-7.164-6.975c-4.16-2.343-4.162-2.348-8.994-1.44c-2.99,0.562-5.932,0.13-8.748-0.772
		c-4.104-1.314-8.137-2.857-12.176-4.368c-4.637-1.734-8.631-4.441-12.133-7.955c-5.26-5.279-10.355-10.68-14.17-17.142
		c-2.801-4.745-5.564-9.511-8.34-14.271c-0.16-0.274-0.326-0.567-0.391-0.872c-0.955-4.463-3.768-7.862-6.604-11.182
		c-1.576-1.846-3.867-2.7-6.27-3.219c-3.264-0.706-6.623-1.11-9.627-2.749c-1.346-0.734-1.863-1.667-1.678-3.111
		c0.156-1.227,0.811-1.785,2.219-2.082c3.516-0.74,7.006-1.607,10.631-1.642c0.287-0.002,0.572-0.168,1.109-0.336
		c-0.881-1.449-2.012-2.408-3.127-3.389c-0.471-0.416-1.129-0.82-1.291-1.354c-0.533-1.777-1.951-2.36-3.438-3.021
		c-2.984-1.326-3.336-4.415-0.83-6.516c0.672-0.564,1.361-0.846,2.195-0.485c1.529,0.662,3.115,1.23,4.551,2.06
		c1.51,0.874,2.988,1.358,4.766,1.192c1.822-0.17,3.691,0.106,5.504-0.114c2.197-0.268,4.434-0.629,6.518-1.347
		c3.615-1.247,7.113-2.835,10.693-4.19c0.695-0.264,1.574-0.274,2.318-0.135c2.27,0.424,4.504,1.035,6.771,1.47
		c4.279,0.821,8.395,1.997,11.682,5.045c5.861-3.76,11.061-8.128,16.232-12.527c8.16-6.942,16.297-13.913,24.471-20.841
		c8.371-7.094,17.338-13.363,26.547-19.318c4.152-2.685,8.074-5.73,12.041-8.692c2.488-1.858,4.869-1.116,5.758,1.925
		c0.111,0.384,0.244,0.761,0.346,1.148c0.455,1.746,0.297,2.108-1.193,3.207c-3.201,2.358-5.736,5.375-8.178,8.543
		c2.205-1.377,4.348-2.871,6.629-4.107c4.281-2.32,8.576-4.635,12.998-6.665c2.293-1.053,4.879-1.458,7.313-2.218
		c1.637-0.511,2.996-0.273,4.055,1.217c0.176,1.933-0.555,3.395-1.992,4.91c-2.619,2.765-4.852,5.898-7.611,9.333
		c2.311-0.743,4.084-1.338,5.873-1.878c1.031-0.31,2.057-0.375,2.896,0.514c1.16,1.231,1.061,4.009-0.215,5.184
		c-3.184,2.931-6.566,5.603-10.264,7.865c-0.59,0.362-1.133,0.803-1.697,1.208c0.039,0.162,0.08,0.323,0.121,0.485
		c0.701-0.105,1.404-0.204,2.104-0.315c3.035-0.483,4.904,1.062,4.711,4.079c-0.045,0.684-0.623,1.498-1.193,1.955
		c-2.738,2.192-5.479,4.402-8.375,6.375c-2.957,2.013-6.096,3.757-9.053,5.952c0.383-0.057,0.779-0.067,1.145-0.177
		c1.836-0.551,3.652-1.157,5.492-1.687c1.908-0.55,3.014-0.275,3.627,0.805c0.859,1.516,0.635,3.835-0.721,4.831
		c-1.795,1.318-3.668,2.582-5.652,3.578c-2.85,1.43-5.896,2.467-8.74,3.907c-4.27,2.162-8.443,4.511-12.643,6.81
		c-2.803,1.535-5.578,3.117-8.361,4.688c-0.322,0.182-0.611,0.422-0.828,0.977c0.752-0.034,1.514,0,2.252-0.114
		c2.443-0.377,4.867-0.894,7.318-1.194c2.445-0.299,4.912-0.424,7.373-0.583c1.549-0.1,3.018-0.305,4.125-1.571
		c0.248-0.283,0.662-0.574,1.01-0.59c3.934-0.177,7.24-2.424,10.973-3.263c2.254-0.506,4.463-1.213,6.707-1.766
		c1.221-0.301,2.438,0.385,2.92,1.504c0.578,1.341,0.336,2.235-0.92,3.086c-0.914,0.62-1.877,1.17-2.645,2.184
		c0.863-0.263,1.762-0.45,2.586-0.804c2.826-1.212,5.811-1.707,8.832-2.021c0.869-0.09,1.768-0.099,2.633,0.01
		c1.373,0.173,2.451,0.919,2.791,2.29c0.338,1.369-0.217,2.52-1.426,3.282c-2.096,1.32-4.182,2.655-6.314,3.91
		C803.611,126.613,801.428,127.777,799.268,128.98z M755.041,132.644c-1.063,0.207-2.125,0.415-3.188,0.622
		c1.162,0.24,2.322,0.462,3.189-0.625c1.633,0.688,3.281,0.4,4.93,0.078c3.074-0.397,4-0.353,5.016,0.242
		c-0.102,0.113-0.189,0.307-0.309,0.327c-0.609,0.105-1.254,0.086-1.836,0.269c-0.451,0.141-0.83,0.515-1.262,0.763
		c-1.076-0.111-2.15-0.221-3.227-0.333c-0.006,0.107-0.012,0.213-0.018,0.32c1.08,0,2.162,0,3.242,0
		c2.223-0.467,4.463-0.721,6.992-0.859c-1.393,1.406-2.488,2.512-3.584,3.619c-1.121,0.064-2.242,0.129-3.363,0.193
		c-1.27,0.133-2.549,0.204-3.807,0.409c-5.496,0.894-11.006,1.718-16.465,2.799c-2.18,0.432-4.24,1.466-6.799,2.385
		c0.715,0.193,0.895,0.308,1.016,0.264c3.357-1.221,7.127-0.507,10.387-2.205c0.252-0.132,0.645-0.177,0.906-0.081
		c1.604,0.589,2.93,0.026,4.279-0.807c0.658-0.407,1.475-0.605,2.246-0.773c2.336-0.509,4.689-0.938,7.027-1.443
		c0.412-0.089,0.777-0.391,1.17-0.588c1.135-0.051,2.268-0.102,3.402-0.152c0.934-0.186,1.861-0.443,2.805-0.543
		c4.104-0.438,8.162-1.565,12.357-0.759c0.686,0.132,1.473-0.255,2.42-0.443c-1.203-2.081-1.734-3.889,0.713-5.571
		c-2.371,0.273-4.268,0.525-6.17,0.705c-4.289,0.405-8.584,0.737-12.867,1.181c-1.449,0.15-3.004,0.067-4.244,1.111
		C758.35,132.713,756.695,132.678,755.041,132.644z M729.633,139.012c-2.691,0.429-5.383,0.858-8.074,1.287
		c0.035,0.201,0.07,0.401,0.105,0.602c2.475-0.405,4.949-0.796,7.416-1.241c0.215-0.039,0.367-0.426,0.553-0.651
		c2.197,0.438,4.361,0.404,6.434-0.756C733.922,138.505,731.777,138.759,729.633,139.012z M776.65,96.603
		c-0.234-0.005-0.504-0.091-0.695-0.003c-4.783,2.196-9.561,4.411-14.332,6.633c-0.086,0.04-0.1,0.232-0.184,0.448
		c0.598,0.22,1.176,0.432,1.828,0.673c-0.443,0.539-0.85,1.036-1.258,1.532c1.422-0.323,2.861-0.668,3.781-1.552
		c2.334-2.243,5.328-3.476,7.801-5.476c0.98-0.794,2.004-1.538,3.006-2.307c0.527-0.308,1.057-0.616,1.586-0.924
		c-0.111-0.133-0.221-0.266-0.332-0.399C777.451,95.686,777.051,96.144,776.65,96.603z M769.592,130.424
		c2.377-0.268,4.752-0.564,7.133-0.796c1.982-0.194,3.98-0.481,5.961-0.424c2.434,0.071,6.348-0.92,8.574-2.509
		c-1.719-0.358-6.506,0.127-8.547,0.925c-1.131,0.441-2.205,0.924-3.436,0.29c-0.32-0.166-0.789-0.114-1.176-0.067
		c-2.221,0.269-4.432,0.614-6.656,0.834c-1.17,0.116-1.723,0.688-1.84,1.778c-0.934-0.749-1.865-1.133-3.217,0.307
		C767.752,130.618,768.672,130.521,769.592,130.424z M702.883,134.685c0.318-1.635,0.082-3.414,1.467-4.202
		c-0.361-1.182-0.637-2.107-0.926-3.028c-0.094-0.301-0.129-0.712-0.342-0.87c-1.154-0.855-0.854-1.905-0.289-3.088
		c-1.793-1.227-3.537-2.342-5.191-3.578c-1.271-0.95-2.672-1.873-3.59-3.121c-2.678-3.64-6.381-5.425-10.605-6.379
		c-0.664-0.15-1.449-0.1-2.104,0.102c-1.434,0.443-2.818,1.045-4.225,1.575c-0.822,0.31-2.059,0.367-2.402,0.952
		c-1.223,2.088-3.139,2.347-5.215,2.879c-2.498,0.64-4.822,1.962-7.348,3.042c0.324,0.346,0.645,0.685,0.965,1.025
		c0.871,0.929,1.863,1.773,2.586,2.806c1.473,2.108,0.488,3.97-2.084,4.077c-0.633,0.026-1.271-0.139-1.908-0.144
		c-0.484-0.004-0.969,0.106-1.307,0.147c3.672,4.123,7.262,8.172,10.875,12.199c1,1.115,1.25,2.315,0.879,3.766
		c-0.184,0.722-0.285,1.635-0.006,2.279c1.973,4.532,3.295,9.374,6.066,13.525c2.033,3.047,4.072,6.146,6.527,8.843
		c2.834,3.116,6.148,5.791,9.209,8.706c1.77,1.685,3.771,2.934,6.068,3.752c2.482,0.884,4.982,1.738,7.41,2.759
		c5.975,2.513,12.117,3.399,18.525,2.229c1.094-0.2,2.191-0.468,3.297-0.516c2.068-0.089,4.145-0.056,6.217-0.045
		c3.949,0.021,7.555-1.098,10.904-3.162c1.695-1.044,3.395-2.1,5.178-2.977c2.857-1.407,5.82-2.606,8.67-4.027
		c1.051-0.522,1.99-1.34,2.846-2.164c6.699-6.46,9.617-14.86,12.084-23.753c-3.188,0.449-6.246,0.893-9.309,1.307
		c-5.697,0.771-11.408,1.463-17.096,2.309c-2.74,0.407-5.682-0.874-8.242,0.986c-0.047,0.034-0.158,0.006-0.229-0.021
		c-1.492-0.591-2.854,1.167-4.396,0.255c-0.137-0.081-0.566,0.477-0.904,0.57c-1.189,0.329-2.521,1.035-3.568,0.75
		c-1.25-0.339-2.348-0.136-3.51-0.08c-0.846,0.041-1.686,0.173-2.529,0.265c-0.035-0.172-0.07-0.344-0.105-0.516
		c1.781-0.396,3.563-0.791,5.527-1.226c-2.004-0.558-4.139,0.82-5.35-0.885c-0.74,0.461-1.283,1.055-1.896,1.141
		c-6.004,0.839-12.018,1.593-18.029,2.368c-0.236,0.03-0.535,0.11-0.707,0.006c-0.512-0.309-1.277-0.633-1.373-1.075
		c-0.1-0.46,0.332-1.337,0.768-1.549c0.906-0.44,1.957-0.634,2.969-0.796c1.17-0.188,2.361-0.232,3.598-0.344
		c-0.189-0.468-0.484-0.873-0.389-1.019c0.426-0.646,0.852-1.527,1.482-1.756c1.693-0.616,3.492-0.942,5.328-1.402
		c0.014-0.844,0.635-1.114,1.527-1.27c2.598-0.454,5.178-1.005,7.764-1.518c-0.904-0.235-1.783-0.337-2.631-0.218
		c-3.48,0.488-6.961,0.992-10.424,1.594c-1.625,0.283-3.146,0.266-4.57-0.439c-1.121-3.578,0.352-3.963,2.977-4.098
		c0.979-0.05,1.961-0.074,3.436-0.127c-2.826-1.308-2.947-1.595-2.473-4.388c0.092-0.532,0.014-1.093,0.014-1.568
		c-1.785-1.605-3.561-1.689-5.494-0.421C705.828,136.082,704.328,136.376,702.883,134.685z M794.883,74.349
		c-0.205-0.245-0.41-0.49-0.615-0.735c-2.578,1.516-5.211,2.946-7.721,4.567c-3.756,2.428-7.428,4.984-11.127,7.497
		c-1.514,1.027-3.146,1.518-4.988,1.291c-1.004-0.124-1.607-0.658-1.838-1.612c-0.359-1.476,0.545-3.28,1.863-4.047
		c1.859-1.082,3.693-2.21,5.488-3.393c2.002-1.319,3.891-2.816,5.928-4.073c6.992-4.315,13.125-9.623,18.547-15.775
		c0.316-0.36,0.563-0.783,1.156-1.625c-1.289,0.477-2.027,0.734-2.756,1.021c-9.904,3.911-18.672,9.775-27.227,15.973
		c-6.146,4.453-12.193,9.045-18.227,13.65c-5.59,4.266-11.125,8.604-16.645,12.958c-5.586,4.405-11.115,8.881-16.688,13.3
		c-1.531,1.213-3.135,2.333-5.004,3.717c0.658,0,0.918,0.07,1.115-0.011c2.951-1.197,5.947-2.3,8.824-3.656
		c3.824-1.802,7.564-3.789,11.324-5.726c9.377-4.832,18.736-9.697,28.121-14.512c3.402-1.745,6.957-3.213,10.27-5.11
		c6.74-3.859,12.832-8.688,19.086-13.266C794.082,74.557,794.51,74.49,794.883,74.349z M771.252,139.684
		c-0.553,0.037-1.109,0.036-1.654,0.116c-3.715,0.546-7.422,1.146-11.141,1.657c-2.924,0.402-5.885,1.095-8.785,0.925
		c-2.363-0.139-4.549,0.203-6.795,0.611c-2.896,0.526-5.791,1.058-8.691,1.558c-3.771,0.65-7.551,1.26-11.32,1.916
		c-0.643,0.112-1.262,0.369-1.891,0.559c0.703,0.25,1.336,0.227,1.955,0.12c2.637-0.454,5.256-0.896,7.945-1.124
		c7-0.593,13.973-1.523,20.949-2.375c4.828-0.59,9.645-1.282,14.471-1.9c0.498-0.064,1.023,0.066,1.535,0.106
		c-0.371,0.685-0.865,0.986-1.387,1.227c-0.42,0.193-1.074,0.18-1.279,0.487c-0.881,1.321-2.215,1.392-3.57,1.563
		c-3.252,0.411-6.504,0.817-9.74,1.33c-3.945,0.625-7.863,1.364-11.893,1.278c-1.256-0.027-2.521,0.446-3.783,0.69
		c11.883-0.056,23.639-1.044,35.346-3.555C770.697,143.133,769.553,141.545,771.252,139.684z M736.678,123.231
		c2.422,0.451,3.994-0.257,5.516-1.046c4.6-2.387,9.18-4.812,13.762-7.229c3.453-1.821,6.904-3.642,10.338-5.495
		c0.498-0.269,0.898-0.722,1.344-1.089c-0.076-0.161-0.152-0.321-0.229-0.482c-0.887,0.232-1.789,0.415-2.654,0.71
		c-0.979,0.333-1.928,0.75-2.877,1.16c-4.59,1.978-9.178,3.96-13.758,5.958c-0.262,0.114-0.682,0.424-0.652,0.561
		c0.367,1.677-1.076,1.71-1.967,2.198c-1.889,1.035-3.809,2.011-5.707,3.024C738.908,121.972,738.039,122.473,736.678,123.231z
		 M768.445,66.076c4.531-1.686,8.957-5.569,10.236-8.731C774.863,59.932,771.205,62.491,768.445,66.076z M790.414,87.418
		c-3.996,1.156-9.113,4.49-10.115,6.606C783.77,91.975,787.309,90.029,790.414,87.418z M739.555,151.738
		c1.469-0.354,2.938-0.654,4.373-1.066c1.361-0.391,2.941,0.055,4.08-1.368c-3.16,0.338-6.322,0.676-9.588,1.025
		C738.865,150.883,739.186,151.28,739.555,151.738z M736.934,110.341c0.133,0.176,0.266,0.352,0.398,0.528
		c2.383-1.228,4.764-2.456,7.145-3.684c-0.088-0.171-0.178-0.342-0.268-0.513C741.785,107.896,739.359,109.119,736.934,110.341z
		 M759.67,100.467c0.092,0.156,0.182,0.311,0.273,0.466c2.453-1.27,4.908-2.54,7.361-3.809c-0.096-0.185-0.189-0.369-0.285-0.553
		C764.381,97.495,762.125,99.18,759.67,100.467z M729.154,149.846c0.654-0.14,1.305-0.298,1.963-0.416
		c0.67-0.12,1.348-0.202,2.021-0.3C731.785,149.252,730.328,148.393,729.154,149.846z M735.311,111.871
		c-0.047-0.161-0.094-0.322-0.141-0.482c-0.971,0.462-1.939,0.924-2.91,1.387c0.063,0.135,0.125,0.271,0.188,0.406
		C733.4,112.745,734.355,112.308,735.311,111.871z M713.936,151.37c0.023,0.095,0.047,0.19,0.07,0.285
		c0.703-0.17,1.408-0.34,2.111-0.51c-0.027-0.113-0.055-0.227-0.084-0.341C715.334,150.992,714.635,151.181,713.936,151.37z
		 M742.186,203.078c-0.25,0.486-0.457,0.793-0.553,1.131c-0.029,0.099,0.348,0.431,0.375,0.412c0.293-0.198,0.619-0.407,0.787-0.699
		C742.852,203.823,742.486,203.481,742.186,203.078z M758.574,124.016c1.367,0.338,1.367,0.338,2.451-0.468
		C759.979,123.748,759.277,123.882,758.574,124.016z M745.844,136.949c0-0.169-0.002-0.338-0.004-0.506
		c-0.484,0.074-0.967,0.147-1.451,0.221c0.027,0.157,0.057,0.313,0.086,0.47C744.932,137.072,745.389,137.011,745.844,136.949z"/>
	<path fill-rule="evenodd" clip-rule="evenodd" d="M279.997,301.603c0.684,2.343,1.935,4.187,3.347,5.914
		c3.938,4.816,9.162,7.625,14.99,9.459c6.027,1.897,12.085,2.021,18.203,0.416c11.896-3.12,21.422-9.765,28.992-19.349
		c0.744-0.941,1.424-1.936,2.197-2.85c0.956-1.129,1.499-1.171,2.537-0.067c1.645,1.747,3.216,3.563,4.793,5.371
		c1.734,1.989,3.354,4.086,5.184,5.981c1.435,1.486,1.362,2.817,0.414,4.506c-5.01,8.915-11.791,16.088-20.642,21.255
		c-8.205,4.79-17.128,7.404-26.492,8.63c-8.18,1.071-16.303,0.806-24.229-1.621c-14.802-4.532-25.556-13.929-32.337-27.764
		c-5.331-10.875-8.168-22.42-7.312-34.575c1.187-16.847,7.716-31.259,20.854-42.213c8.041-6.703,17.576-9.957,27.924-10.982
		c22.336-2.214,43.427,13.146,50.939,32.955c1.297,3.417,2.346,6.981,3.02,10.569c0.951,5.073-1.604,9.651-6.418,11.628
		c-5.54,2.274-11.163,4.372-16.835,6.296c-15.286,5.186-30.616,10.236-45.927,15.343
		C282.15,300.854,281.105,301.222,279.997,301.603z M273.492,274.255c0.09,1.114,0.115,2.238,0.283,3.341
		c0.681,4.475,1.426,4.962,5.854,3.865c13.689-3.393,26.881-8.248,39.904-13.596c0.883-0.363,1.744-0.806,2.561-1.303
		c1.61-0.98,1.721-1.328,1.172-3.146c-0.16-0.535-0.364-1.058-0.572-1.576c-2.752-6.828-8.004-11.017-14.607-13.731
		c-6.27-2.577-12.584-2.458-18.591,0.579C279.094,253.947,274.553,263.036,273.492,274.255z"/>
	<path fill-rule="evenodd" clip-rule="evenodd" d="M450.617,186.505c8.914,0,17.508,0,26.338,0c0,10.472,0,20.828,0,31.462
		c5.695,0,11.162,0,16.977,0c0.043,7.65,0.014,15.021,0.023,22.667c-5.727,0-11.197,0-16.791,0c0,23.903,0,47.534,0,71.419
		c5.766,0,11.482,0,17.121,0c0.566,1.945,0.668,19.737,0.17,22.541c-0.736,0.033-1.516,0.1-2.293,0.1
		c-8.635,0.008-17.271,0.008-25.906,0.001c-1.119-0.001-2.24-0.013-3.355-0.093c-7.237-0.518-11.591-4.825-12.163-12.062
		c-0.114-1.433-0.097-2.876-0.097-4.315c-0.006-24.787-0.004-49.574-0.004-74.361c0-0.951,0-1.902,0-3.148
		c-4.155-0.246-8.195,0.042-12.316-0.174c0-7.53,0-14.847,0-22.417c4.059,0,8.021,0,12.297,0
		C450.617,207.459,450.617,197.042,450.617,186.505z"/>
	<path fill-rule="evenodd" clip-rule="evenodd" d="M383.193,341.758c-1.999,0-4,0.063-5.996-0.017
		c-2.377-0.095-3.272-0.917-3.76-3.225c-0.065-0.312-0.096-0.633-0.123-0.951c-0.488-5.651-0.975-11.304-1.456-16.956
		c-0.034-0.397-0.046-0.799-0.045-1.198c0.008-2.044,0.567-2.862,2.571-3c1.981-0.136,4-0.061,5.978,0.153
		c5.409,0.586,10.707,0.046,15.862-1.58c1.875-0.591,3.703-1.528,5.346-2.617c5.027-3.332,7.324-11.918,1.73-17.648
		c-2.264-2.318-4.916-4.066-7.708-5.647c-5.354-3.033-10.753-5.991-16.03-9.153c-7.439-4.456-11.919-11.14-13.232-19.627
		c-2.494-16.123,3.291-31.517,20.507-39.993c8.062-3.969,16.67-5.374,25.567-5.45c1.762-0.016,2.964,0.693,3.432,2.373
		c1.713,6.151,3.461,12.296,5.013,18.488c0.592,2.363-0.029,3.015-2.472,3.356c-4.826,0.676-9.657,1.335-14.497,1.909
		c-2.692,0.319-5.083,1.298-7.31,2.786c-3.851,2.573-5.979,8.881-1.635,13.619c2.248,2.452,4.973,4.235,7.793,5.928
		c5.411,3.249,10.868,6.432,16.157,9.871c5.026,3.27,8.53,7.926,10.845,13.431c5.024,11.952,4.356,30.942-10.08,43.044
		c-8.026,6.728-17.248,10.559-27.607,11.709c-2.934,0.326-5.893,0.437-8.84,0.646C383.2,341.925,383.196,341.841,383.193,341.758z"
		/>
	<path fill-rule="evenodd" clip-rule="evenodd" d="M590.004,325.374c15.566,0,30.584,0,45.725,0
		c0.492-0.781,1.012-1.576,1.502-2.391c3.752-6.234,7.65-12.387,11.17-18.749c1.49-2.693,3.398-3.537,6.488-3.18
		c-0.117,1.382-0.236,2.783-0.354,4.185c-0.73,8.764-1.496,17.524-2.174,26.292c-0.275,3.561-0.188,3.551-3.686,3.529
		c-19.676-0.126-39.348-0.296-59.021-0.339c-9.115-0.02-18.232,0.233-27.348,0.312c-0.961,0.009-2.156,0.523-2.846-0.644
		c-0.789-1.336,0.486-2.052,1.055-2.893c20.563-30.401,41.154-60.784,61.736-91.172c0.615-0.906,1.193-1.836,1.979-3.046
		c-15.111,0-29.848,0-44.896,0c-2.443,7.505-4.93,15.146-7.457,22.913c-1.436,0.274-2.834,0.542-4.574,0.875
		c-0.951-5.617-1.924-11.164-2.816-16.724c-0.881-5.472-2.244-10.866-3.1-16.679c2.025,0,3.604-0.005,5.184,0.001
		c23.111,0.082,46.225,0.184,69.338,0.234c5.115,0.011,10.232-0.158,15.35-0.24c0.561-0.009,1.133-0.069,1.676,0.022
		c1.016,0.173,1.396,1.01,0.896,1.938c-0.301,0.561-0.703,1.067-1.059,1.6c-20.295,30.388-40.59,60.776-60.881,91.167
		C591.324,323.234,590.803,324.108,590.004,325.374z"/>
	<path fill-rule="evenodd" clip-rule="evenodd" d="M715.602,319.174c-9.385-0.257-18.379-1.876-26.555-6.582
		c-13.656-7.861-21.516-19.662-23.408-35.363c-0.834-6.898-0.563-13.752,1.299-20.45c3.969-14.277,13.061-24.087,26.916-29.036
		c12.92-4.615,26.176-4.606,38.988,0.352c16.771,6.49,26.488,18.95,28.922,36.861c1.1,8.087,0.871,16.168-1.703,23.963
		c-5.242,15.883-16.318,25.404-32.59,28.837C723.588,318.574,719.563,318.719,715.602,319.174z M714.012,298.6
		c2.174-0.129,5.293-0.208,8.391-0.521c6.887-0.694,13.543-2.257,19.637-5.716c7.156-4.063,11.465-10.048,12.258-18.339
		c0.959-10.012-2.691-18.557-11.986-23.689c-3.029-1.673-6.264-2.816-9.633-3.556c-10.191-2.234-20.453-2.349-30.732-0.784
		c-5.881,0.895-11.504,2.67-16.709,5.639c-7.25,4.135-11.529,10.233-12.125,18.647c-0.674,9.484,2.627,17.12,11.02,22.047
		c2.455,1.441,5.164,2.539,7.875,3.434C698.832,298.014,705.943,298.389,714.012,298.6z"/>
	<path fill-rule="evenodd" clip-rule="evenodd" d="M515.119,218.186c8.576,0,17.014,0,25.625,0c0,38.765,0,77.433,0,116.111
		c-1.615,0.493-21.867,0.663-25.625,0.184C515.119,295.771,515.119,257.043,515.119,218.186z"/>
	<path fill-rule="evenodd" clip-rule="evenodd" d="M665.32,335.884c0-3.26,0-6.286,0-9.488c32.279,0,64.473,0,96.811,0
		c0,3.146,0,6.229,0,9.488C729.916,335.884,697.732,335.884,665.32,335.884z"/>
	<path fill-rule="evenodd" clip-rule="evenodd" d="M514.779,201.159c0-8.96,0-17.806,0-26.828c8.781,0,17.445,0,26.242,0
		c0,8.944,0,17.799,0,26.652C539.387,201.517,518.41,201.688,514.779,201.159z"/>
	<path fill-rule="evenodd" clip-rule="evenodd" fill="#FFFFFF" d="M742.186,203.078c0.301,0.403,0.666,0.745,0.609,0.844
		c-0.168,0.292-0.494,0.501-0.787,0.699c-0.027,0.019-0.404-0.313-0.375-0.412C741.729,203.871,741.936,203.564,742.186,203.078z"/>
	<path fill-rule="evenodd" clip-rule="evenodd" fill="#FFFFFF" d="M776.65,96.603c0.4-0.458,0.801-0.917,1.201-1.375
		c0.111,0.133,0.221,0.266,0.332,0.399c-0.529,0.308-1.059,0.616-1.586,0.925C776.6,96.552,776.65,96.603,776.65,96.603z"/>
	<path fill-rule="evenodd" clip-rule="evenodd" fill="#FFFFFF" d="M761.625,137.26c1.121-0.064,2.242-0.129,3.365-0.194
		c0,0-0.004,0.002-0.004,0.001c-1.133,0.05-2.266,0.101-3.402,0.148C761.58,137.213,761.625,137.26,761.625,137.26z"/>
	<path fill-rule="evenodd" clip-rule="evenodd" d="M678.746,126.733c-4.115-0.043-5.84-2.07-5.283-5.513
		c0.111-0.68-0.004-1.398-0.037-2.099c-0.063-1.346,0.461-2.336,1.701-2.487c2.527-0.308,5.074-0.706,7.615,0
		c1.387,0.385,2.436,1.183,3.127,2.43c0.875,1.582,0.637,3.08-0.666,4.34C683.248,125.297,680.938,126.445,678.746,126.733z"/>
	<path fill-rule="evenodd" clip-rule="evenodd" d="M731.348,163.758c0.498-0.168,0.984-0.427,1.494-0.491
		c6.639-0.828,13.283-1.599,19.918-2.449c2.682-0.343,5.334-0.93,8.02-1.239c1.516-0.174,3.127-0.595,4.691,0.368
		c-0.604,1.44-1.691,2.169-3.029,2.54c-0.838,0.232-1.717,0.352-2.586,0.438c-5.627,0.558-11.25,1.148-16.885,1.601
		c-1.73,0.139-3.492-0.135-5.238-0.192c-1.35-0.045-2.699-0.065-4.049-0.063c-0.77,0.001-1.539,0.069-2.309,0.107
		C731.367,164.17,731.357,163.964,731.348,163.758z"/>
	<path fill-rule="evenodd" clip-rule="evenodd" d="M733.945,157.552c0.23-0.154,0.443-0.405,0.693-0.448
		c10.877-1.868,21.797-3.435,33.104-4.704c-0.891,2.138-2.279,2.874-3.996,3.087c-3.162,0.393-6.332,0.722-9.496,1.092
		c-2.525,0.295-5.043,0.665-7.574,0.891c-0.932,0.083-1.893-0.158-2.84-0.233c-0.377-0.029-0.885-0.169-1.115,0.015
		c-1.215,0.967-2.471,0.756-3.836,0.438c-0.738-0.172-1.566,0.027-2.354,0.076c-0.828,0.052-1.656,0.125-2.484,0.189
		C734.014,157.822,733.979,157.687,733.945,157.552z"/>
	<path fill-rule="evenodd" clip-rule="evenodd" d="M757.586,169.263c-0.055,2.083-0.051,2.101-1.6,2.34
		c-0.629,0.097-1.271,0.108-1.908,0.15c-4.217,0.278-8.434,0.582-12.656,0.81c-0.914,0.049-1.844-0.19-2.768-0.264
		c-0.623-0.049-1.252-0.014-1.873-0.069c-0.488-0.043-0.971-0.167-1.738-0.307C737.119,170.833,754.813,168.818,757.586,169.263z"/>
	<path fill-rule="evenodd" clip-rule="evenodd" d="M731.014,157.792c-2.355,1.035-4.549,0.88-6.602,1.018
		c-4.891,0.326-9.727,1.664-14.688,0.97c4.148-1.298,8.48-1.28,13.012-1.936c-0.672-0.254-1.063-0.402-1.717-0.65
		c1.736-1.161,3.561-0.638,5.156-1.101C728.082,155.54,729.246,156.851,731.014,157.792z"/>
	<path fill-rule="evenodd" clip-rule="evenodd" d="M730.895,163.285c-1.785,0.23-3.623,1.26-5.342-0.497
		c-1.127,1.6-5.523,2.319-9.525,1.368c0.721-1.034,1.795-1.022,2.713-1.131c1.023-0.122,1.92-0.531,2.854-0.806
		c2.166-0.64,4.473-1.642,6.814-0.184c0.723,0.45,1.715,0.468,2.584,0.683C730.959,162.908,730.926,163.097,730.895,163.285z"/>
	<path fill-rule="evenodd" clip-rule="evenodd" d="M728.676,161.696c2.264-0.979,3.055-1.008,4.936-0.33
		C732.148,161.989,731.391,162.051,728.676,161.696z"/>
	<path fill-rule="evenodd" clip-rule="evenodd" d="M767.275,132.379c1.785-0.696,3.662-0.333,5.547-0.021
		c-0.369,0.079-0.738,0.201-1.113,0.229c-1.465,0.113-2.934,0.196-4.4,0.29C767.297,132.711,767.287,132.545,767.275,132.379z"/>
</g>
</svg>
